# xmcd
#
# Track frame offsets:
#	150
#	12185
#	27632
#	38845
#	49119
#	63233
#	76083
#	88076
#	99242
#	109914
#	120546
#	135001
#	146589
#	155687
#	170190
#	181445
#	191633
#	206967
#	218706
#	232745
#
# Disc length: 3280 seconds
#
# Revision: 0
# Processed by: cddbd v1.4PL0 Copyright (c) Steve Scherf et al.
# Submitted via: dBpowerAMP V4.0
#
DISCID=100cce14
DTITLE=Pascal Bessette - Chansons De Mes Idoles
DYEAR=1900
DGENRE=
TTITLE0=Meme Si ..
TTITLE1=Celui Qui Choisit
TTITLE2=Je Rêve En Plein Jour
TTITLE3=Tu Es Revenue
TTITLE4=Soir De Pluie
TTITLE5=Elle Sera Toujours Dans Ma Vie
TTITLE6=Bonjour L'Amour
TTITLE7=Linda
TTITLE8=J'Espere Tendrement
TTITLE9=Prisonnier De Ton Amour
TTITLE10=Les Dés Sont jetés
TTITLE11=On Recommance
TTITLE12=Je Suis Seul
TTITLE13=Je N'ai Pa Sommeil
TTITLE14=L'Amour
TTITLE15=Son Nom Est ...
TTITLE16=Dans Mon Coeur Il Y A Quelqu'Un
TTITLE17=De Plus En Plus
TTITLE18=En Chantant
TTITLE19=La bouteille
EXTD=
EXTT0=
EXTT1=
EXTT2=
EXTT3=
EXTT4=
EXTT5=
EXTT6=
EXTT7=
EXTT8=
EXTT9=
EXTT10=
EXTT11=
EXTT12=
EXTT13=
EXTT14=
EXTT15=
EXTT16=
EXTT17=
EXTT18=
EXTT19=
PLAYORDER=
